PathFileType	4	(X/Y/Z)	/Users/itak/Documents/Research/Walk-IL/dataset/trc/00465_00167.trc
DataRate	CameraRate	NumFrames	NumMarkers	Units	OrigDataRate	OrigDataStartFrame	OrigNumFrames
100.000000	100.000000	4	53	mm	100.000000	425	681
Frame#	Time	RPSI			LPSI			L3			STRN			T10			C7			CLAV			RBAK			LBAK			LSHO			LUPA			LAEL			LAOL			LWTS			LWPS			LFRA			LIFD			LHPS			LHTS			RSHO			RUPA			RAEL			RAOL			RWTS			RWPS			RFRA			RIFD			RHTS			RHPS			RBHD			LFHD			RFHD			LBHD			LHIP			RHIP			RASI			LASI			LKNE			LTHI			LANK			LTIP			LTOE			LMT1			LMT5			LHEE			RKNE			RTHI			RANK			RTIP			RTOE			RMT1			RMT5			RHEE			
		X1	Y1	Z1	X2	Y2	Z2	X3	Y3	Z3	X4	Y4	Z4	X5	Y5	Z5	X6	Y6	Z6	X7	Y7	Z7	X8	Y8	Z8	X9	Y9	Z9	X10	Y10	Z10	X11	Y11	Z11	X12	Y12	Z12	X13	Y13	Z13	X14	Y14	Z14	X15	Y15	Z15	X16	Y16	Z16	X17	Y17	Z17	X18	Y18	Z18	X19	Y19	Z19	X20	Y20	Z20	X21	Y21	Z21	X22	Y22	Z22	X23	Y23	Z23	X24	Y24	Z24	X25	Y25	Z25	X26	Y26	Z26	X27	Y27	Z27	X28	Y28	Z28	X29	Y29	Z29	X30	Y30	Z30	X31	Y31	Z31	X32	Y32	Z32	X33	Y33	Z33	X34	Y34	Z34	X35	Y35	Z35	X36	Y36	Z36	X37	Y37	Z37	X38	Y38	Z38	X39	Y39	Z39	X40	Y40	Z40	X41	Y41	Z41	X42	Y42	Z42	X43	Y43	Z43	X44	Y44	Z44	X45	Y45	Z45	X46	Y46	Z46	X47	Y47	Z47	X48	Y48	Z48	X49	Y49	Z49	X50	Y50	Z50	X51	Y51	Z51	X52	Y52	Z52	X53	Y53	Z53	

426	4.25	488.3599853515625	967.6148681640625	-348.7579040527344	479.8835754394531	959.2935791015625	-204.6109771728516	463.1557006835938	1067.033935546875	-300.3242797851562	177.4272613525391	1240.063720703125	-308.1953735351562	465.6790161132812	1191.781860351562	-301.361572265625	379.1170349121094	1455.705322265625	-321.5187683105469	204.6181793212891	1355.119995117188	-307.7078247070312	453.6658935546875	1337.970581054688	-409.08935546875	418.0341491699219	1410.692016601562	-221.3640594482422	315.8336486816406	1422.384643554688	-143.8507537841797	336.014892578125	1311.884399414062	-39.50603103637695	313.74072265625	1105.382934570312	2.197675466537476	399.2210083007812	1073.075439453125	-49.84835815429688	173.0220031738281	976.784423828125	-109.171745300293	186.2432556152344	940.921875	-44.93083572387695	256.579345703125	1036.609008789062	-12.70295143127441	85.31526184082031	843.7470703125	-111.2770843505859	140.98388671875	884.3270263671875	-51.33755493164062	112.4610366821289	913.7965087890625	-112.0451965332031	321.1725158691406	1419.46826171875	-480.7035827636719	350.8909301757812	1363.852661132812	-555.3938598632812	400.4399108886719	1080.2353515625	-611.92919921875	455.8936462402344	1078.654663085938	-571.2418823242188	348.6286010742188	858.4680786132812	-570.022216796875	418.8583068847656	861.6550903320312	-629.60107421875	412.6642150878906	1025.218994140625	-623.9701538085938	380.1145324707031	708.0679931640625	-584.96240234375	360.1985168457031	760.7697143554688	-586.8877563476562	424.4898681640625	774.0798950195312	-629.7072143554688	270.7680969238281	1636.14111328125	-412.2666931152344	134.3896179199219	1643.60595703125	-256.9546508789062	135.4542846679688	1637.9326171875	-387.9468688964844	285.6877136230469	1650.75537109375	-235.8352508544922	317.7753295898438	871.4803466796875	-94.49304962158203	384.1356506347656	857.09521484375	-492.4607238769531	273.7016906738281	892.5606689453125	-441.5482177734375	246.0244140625	910.6325073242188	-192.2623291015625	109.7578125	508.1725158691406	-142.4201202392578	162.2780303955078	652.0465698242188	-123.836311340332	31.67352867126465	91.15570831298828	-116.2140502929688	61.32012557983398	362.9430236816406	-122.140380859375	-159.1383819580078	173.7642822265625	-235.5308380126953	-83.81536865234375	147.5399475097656	-248.3001098632812	-107.0565567016602	145.5039672851562	-138.9697875976562	87.78147888183594	76.56269073486328	-168.3443756103516	398.3757934570312	467.035888671875	-444.5231323242188	347.2322998046875	718.9927978515625	-491.7705078125	541.5176391601562	50.66984176635742	-445.3797607421875	422.6493835449219	322.177978515625	-444.5555725097656	445.8045043945312	41.62216186523438	-247.1892242431641	507.8751831054688	61.04307174682617	-280.6639404296875	435.274169921875	40.27472305297852	-352.3264465332031	622.9227294921875	70.89582061767578	-461.0922546386719	
427	4.26	484.2511901855469	967.0394897460938	-346.3628540039062	474.6570739746094	958.310791015625	-202.3532409667969	458.7340698242188	1066.015747070312	-298.0737915039062	172.8379058837891	1238.773803710938	-307.7906799316406	461.0496215820312	1190.791381835938	-299.1658935546875	374.3798828125	1454.636474609375	-319.9416198730469	199.9485015869141	1353.886474609375	-307.0122985839844	449.5010986328125	1337.000854492188	-407.1363220214844	412.8922424316406	1409.634765625	-219.6299285888672	310.2847595214844	1421.190307617188	-142.5895843505859	330.3848876953125	1310.604370117188	-38.31073760986328	308.8359680175781	1103.912231445312	3.321740627288818	394.4716796875	1072.180908203125	-48.72766494750977	169.2557678222656	973.3019409179688	-107.1345443725586	183.0798187255859	937.758544921875	-42.75235366821289	252.4514617919922	1034.406982421875	-11.15940856933594	82.95102691650391	839.3709716796875	-108.5877914428711	138.4310455322266	880.6389770507812	-48.85379028320312	109.4723892211914	909.6185913085938	-109.4835968017578	317.2208862304688	1418.328125	-479.41552734375	347.27392578125	1362.678100585938	-553.953369140625	397.0528259277344	1079.196533203125	-610.3907470703125	452.5595092773438	1077.738525390625	-569.6578979492188	345.7447204589844	857.29345703125	-568.7432250976562	416.1197814941406	860.6717529296875	-628.1875610351562	409.513427734375	1024.216796875	-622.4880981445312	377.577392578125	707.0523681640625	-583.5765380859375	357.5713195800781	759.600830078125	-585.6478881835938	421.9669494628906	773.0573120117188	-628.3174438476562	266.4983520507812	1635.117065429688	-411.0352172851562	129.6796875	1642.534423828125	-256.0999145507812	131.1270294189453	1637.07080078125	-387.1017761230469	280.9151306152344	1649.452880859375	-234.5367736816406	312.1334533691406	869.9740600585938	-93.69462585449219	381.6558227539062	856.8564453125	-491.3904418945312	270.5934143066406	891.7067260742188	-440.9644775390625	240.8387756347656	909.0629272460938	-191.9632720947266	107.0924453735352	505.6114807128906	-142.1717987060547	158.8149871826172	649.564208984375	-123.6358261108398	26.12196350097656	89.31232452392578	-117.3839721679688	57.54564666748047	360.8973693847656	-122.5783386230469	-164.2521209716797	171.5823822021484	-237.4534759521484	-88.96842956542969	145.4619293212891	-249.9252014160156	-112.5122375488281	143.5819244384766	-140.6331329345703	82.41599273681641	74.77191925048828	-169.2722930908203	397.5895690917969	466.6064453125	-444.318603515625	345.4376525878906	718.5800170898438	-491.3406677246094	542.5423583984375	50.90025329589844	-444.4853515625	422.6943969726562	321.9919738769531	-444.5063171386719	443.4221496582031	42.95643615722656	-248.1733703613281	506.426025390625	60.98913192749023	-280.2691955566406	435.2772216796875	40.00131225585938	-353.1245727539062	624.115234375	71.28059387207031	-459.0621337890625	
428	4.27	479.9413146972656	966.45263671875	-343.9449157714844	469.2502746582031	957.2855834960938	-200.0910949707031	454.1030578613281	1064.921264648438	-295.7848510742188	168.078857421875	1237.426879882812	-307.2931213378906	456.2573547363281	1189.72119140625	-296.932861328125	369.5010681152344	1453.498168945312	-318.342041015625	195.1277465820312	1352.594604492188	-306.2287902832031	445.1336669921875	1335.943481445312	-405.1697082519531	407.6298217773438	1408.516723632812	-217.8909149169922	304.6248779296875	1419.951904296875	-141.3057556152344	324.6529846191406	1309.277221679688	-37.09025192260742	303.8442687988281	1102.364135742188	4.44517183303833	389.6326599121094	1071.250854492188	-47.61080932617188	165.4429779052734	969.6435546875	-105.0198287963867	179.9241180419922	934.4691162109375	-40.50617599487305	248.2586364746094	1032.110107421875	-9.588833808898926	80.67469787597656	834.78125	-105.7813186645508	135.9410858154297	876.7952270507812	-46.28176879882812	106.52490234375	905.222412109375	-106.8683547973633	313.0615844726562	1417.114135742188	-478.0859985351562	343.4418640136719	1361.439086914062	-552.4848022460938	393.4009094238281	1078.077392578125	-608.8452758789062	448.9441223144531	1076.722778320312	-568.0919799804688	342.4901123046875	856.0532836914062	-567.3986206054688	412.9682922363281	859.5892333984375	-626.7357177734375	406.0500793457031	1023.128051757812	-620.98388671875	374.6092529296875	705.9530639648438	-582.144775390625	354.5231018066406	758.3751220703125	-584.3071899414062	418.9947509765625	771.9381103515625	-626.8699340820312	262.0097351074219	1634.033081054688	-409.7655334472656	124.7907943725586	1641.33837890625	-255.1543579101562	126.567626953125	1636.095581054688	-386.1532287597656	275.9698181152344	1648.08154296875	-233.1947326660156	306.4132385253906	868.3731079101562	-92.86306762695312	379.0711364746094	856.662353515625	-490.3359680175781	267.3059387207031	890.7810668945312	-440.3283386230469	235.509033203125	907.370361328125	-191.6580047607422	104.4830551147461	502.8518676757812	-141.7718505859375	155.3275146484375	646.9558715820312	-123.3018951416016	21.12640190124512	87.13768768310547	-118.3334503173828	54.04682540893555	358.57861328125	-122.8255920410156	-168.8275909423828	169.2509613037109	-239.1053314208984	-93.52571868896484	143.2413330078125	-251.2955932617188	-117.4138870239258	141.3747863769531	-142.0584564208984	77.59188079833984	72.66239166259766	-169.9995574951172	396.9861450195312	466.2125854492188	-444.0925903320312	343.6533508300781	718.1388549804688	-490.8849487304688	543.82861328125	51.19464111328125	-443.3539733886719	422.9842834472656	321.7982482910156	-444.3749084472656	440.7431335449219	44.40621185302734	-249.3598937988281	504.7379150390625	60.93502426147461	-279.8119812011719	435.3088989257812	39.76118087768555	-354.046630859375	625.5636596679688	71.71645355224609	-456.5767211914062	
429	4.28	475.42333984375	965.8374633789062	-341.5152893066406	463.6692810058594	956.2158203125	-197.8406219482422	449.2534790039062	1063.748779296875	-293.4768371582031	163.1494293212891	1236.020751953125	-306.6997375488281	451.2955932617188	1188.565551757812	-294.6777038574219	364.482421875	1452.285400390625	-316.7234191894531	190.1451873779297	1351.240600585938	-305.3663635253906	440.5600891113281	1334.790771484375	-403.192626953125	402.2425231933594	1407.328735351562	-216.1434783935547	298.8547973632812	1418.669189453125	-139.9948425292969	318.8210144042969	1307.90673828125	-35.83945846557617	298.7626342773438	1100.737915039062	5.575649261474609	384.6966552734375	1070.284912109375	-46.49429702758789	161.5795440673828	965.7994384765625	-102.810173034668	176.7828369140625	931.052490234375	-38.18872833251953	243.9963989257812	1029.7177734375	-7.982222080230713	78.49469757080078	829.97509765625	-102.8389129638672	133.524169921875	872.79150390625	-43.61732864379883	103.6192321777344	900.6094360351562	-104.1910095214844	308.7002563476562	1415.827758789062	-476.71337890625	339.3918151855469	1360.136962890625	-550.9851684570312	389.4921569824219	1076.87939453125	-607.2918701171875	445.0575561523438	1075.611450195312	-566.541259765625	338.8505859375	854.7537231445312	-565.9989624023438	409.409423828125	858.4046630859375	-625.2469482421875	402.2852478027344	1021.953918457031	-619.45654296875	371.2054748535156	704.766845703125	-580.665771484375	351.0597839355469	757.091552734375	-582.8772583007812	415.5891418457031	770.7315063476562	-625.3671264648438	257.3104248046875	1632.885620117188	-408.4598999023438	119.7248764038086	1640.025634765625	-254.1203460693359	121.7836532592773	1635.008544921875	-385.1024780273438	270.8559875488281	1646.6416015625	-231.8096771240234	300.6281127929688	866.6726684570312	-91.99275970458984	376.3872680664062	856.4996948242188	-489.3046264648438	263.8310546875	889.7651977539062	-439.6506652832031	230.0355224609375	905.5386352539062	-191.3126373291016	101.9534225463867	499.8866577148438	-141.2010345458984	151.8399047851562	644.21142578125	-122.8048400878906	16.64510726928711	84.62362670898438	-119.0679092407227	50.83015823364258	355.9772033691406	-122.8619537353516	-172.8554229736328	166.8218994140625	-240.5059204101562	-97.50370025634766	140.8931884765625	-252.4141998291016	-121.7843170166016	138.90625	-143.2524566650391	73.27503204345703	70.21636199951172	-170.5327301025391	396.5813598632812	465.8794555664062	-443.8401184082031	341.8782348632812	717.651611328125	-490.3888244628906	545.38525390625	51.54686737060547	-441.9653625488281	423.524658203125	321.5951232910156	-444.1438293457031	437.8354797363281	45.86647033691406	-250.73779296875	502.8409729003906	60.8801383972168	-279.2978210449219	435.3775634765625	39.58703994750977	-355.0609741210938	627.2597045898438	72.21033477783203	-453.6303405761719	
